<?xml version="1.0" encoding="utf-8"?>
<!-- Generator: Adobe Illustrator 24.0.0, SVG Export Plug-In . SVG Version: 6.00 Build 0)  -->
<svg version="1.1" id="Capa_1" xmlns="http://www.w3.org/2000/svg" xmlns:xlink="http://www.w3.org/1999/xlink" x="0px" y="0px"
	 viewBox="0 0 389.3 389.3" style="enable-background:new 0 0 389.3 389.3;" xml:space="preserve">
<g>
	<g>
		<path d="M5,24.2C5,12.5,14.3,2.9,25.7,2.9h336c4.3,0,8.4,1.4,11.9,3.9c9.3,6.8,11.6,20.1,5,29.7L256.8,215.2l-0.3,130
			c0,8.1-2.4,16-6.7,22.8c-12.3,19-37.1,24.1-55.5,11.5l-43.5-29.9c-11.6-8-18.5-21.4-18.4-35.7l0.4-97.8L8.9,36.6
			C6.4,33,5,28.7,5,24.2z M174.2,202.5l-0.5,111.6l41.5,28.5l0.4-140.9L321.9,45.6H65.8L174.2,202.5z"/>
	</g>
</g>
</svg>
